<svg xmlns="http://www.w3.org/2000/svg" version="1.1" xmlns:xlink="http://www.w3.org/1999/xlink" width="512" height="512" x="0" y="0" viewBox="0 0 64 64" xml:space="preserve"><g fill="#6A994E"><path d="M19 4v18a5 5 0 0 1-5 5l1 31c0 4-6 4-6 0l1-31a5 5 0 0 1-5-5V4a1 1 0 0 1 1-1 1 1 0 0 1 1 1v14a1 1 0 0 0 1 1 1 1 0 0 0 1-1V4a1 1 0 0 1 1-1 1 1 0 0 1 1 1v14a1 1 0 0 0 1 1 1 1 0 0 0 1-1V4a1 1 0 0 1 1-1 1 1 0 0 1 1 1v14a1 1 0 0 0 1 1 1 1 0 0 0 1-1V4a1 1 0 0 1 1-1 1 1 0 0 1 1 1zm40 13c0-6.63-3.48-14-9-14s-9 7.37-9 14c0 5.79 2.65 9.09 7 9.84V27l-1 31c0 4 6 4 6 0l-1-31v-.16c4.35-.75 7-4.05 7-9.84zM26.42 31.93 26 35h4l-1 23c0 4 6 4 6 0l-1-23V3a12 12 0 0 0-4.68 8z"></path></g></svg>