<svg width="727.001" height="74.001" viewBox="0 0 727.001 74.001" xmlns="http://www.w3.org/2000/svg"><g id="svgGroup" stroke-linecap="round" fill-rule="evenodd" font-size="9pt" stroke-width="0.25mm" fill="#fff" style="stroke-width:0"><path d="M 358.9 60.9 L 394.4 60.9 L 394.4 73 L 345.1 73 L 345.1 2 L 393.5 2 L 393.5 14.1 L 358.9 14.1 L 358.9 31.2 L 388.8 31.2 L 388.8 42.4 L 358.9 42.4 L 358.9 60.9 Z M 146.1 65.3 L 150.9 56.6 A 42.674 42.674 0 0 0 155.273 59.723 Q 157.714 61.232 160.112 62.185 A 26.548 26.548 0 0 0 160.15 62.2 Q 164.7 64 168.9 64 A 17.69 17.69 0 0 0 171.398 63.835 Q 173.608 63.519 175.15 62.6 A 4.906 4.906 0 0 0 176.672 61.231 Q 177.364 60.254 177.478 58.932 A 6.215 6.215 0 0 0 177.5 58.4 A 4.453 4.453 0 0 0 177.332 57.144 A 3.336 3.336 0 0 0 176.2 55.45 A 7.795 7.795 0 0 0 175.09 54.713 Q 174.494 54.381 173.76 54.079 A 18.79 18.79 0 0 0 172.45 53.6 Q 170 52.8 166.5 51.8 Q 162.059 50.345 158.732 48.949 A 60.249 60.249 0 0 1 156.8 48.1 A 18.209 18.209 0 0 1 153.977 46.498 Q 152.115 45.194 150.95 43.55 Q 149.108 40.952 149.006 36.97 A 18.409 18.409 0 0 1 149 36.5 A 17.074 17.074 0 0 1 149.612 31.838 A 13.946 13.946 0 0 1 151.65 27.55 A 16.597 16.597 0 0 1 156.806 22.853 A 20.989 20.989 0 0 1 159.05 21.7 A 23.776 23.776 0 0 1 164.739 20.031 A 32.902 32.902 0 0 1 170.2 19.6 A 32.003 32.003 0 0 1 180.173 21.138 A 30.338 30.338 0 0 1 180.8 21.35 A 24.977 24.977 0 0 1 189.254 26.404 A 28.911 28.911 0 0 1 189.9 27 L 184.5 35.5 Q 180.963 32.759 177.739 31.308 A 22.806 22.806 0 0 0 176.9 30.95 Q 173.3 29.5 169.6 29.5 A 15.686 15.686 0 0 0 166.71 29.758 A 13.773 13.773 0 0 0 165.65 30 A 7.628 7.628 0 0 0 164.069 30.612 A 5.874 5.874 0 0 0 162.65 31.65 A 3.746 3.746 0 0 0 161.69 33.351 Q 161.5 34.047 161.5 34.9 A 5.518 5.518 0 0 0 161.621 36.093 Q 161.857 37.157 162.55 37.85 A 5.868 5.868 0 0 0 163.492 38.602 Q 164.406 39.2 165.75 39.7 Q 167.9 40.5 171 41.5 A 115.438 115.438 0 0 1 175.451 42.864 Q 177.626 43.582 179.504 44.315 A 58.666 58.666 0 0 1 181.65 45.2 A 22.682 22.682 0 0 1 184.61 46.745 Q 186.825 48.131 188.2 49.85 Q 190.091 52.213 190.356 56.091 A 19.148 19.148 0 0 1 190.4 57.4 A 17.077 17.077 0 0 1 189.548 62.924 A 13.997 13.997 0 0 1 184.7 69.6 A 19.818 19.818 0 0 1 177.785 72.968 Q 174.984 73.742 171.668 73.935 A 38.925 38.925 0 0 1 169.4 74 Q 162.7 74 156.6 71.8 A 28.891 28.891 0 0 1 146.657 65.829 A 28.042 28.042 0 0 1 146.1 65.3 Z M 591.9 63.9 L 591.9 73 L 580.2 73 L 580.2 0 L 593.6 0 L 593.6 29.8 Q 596.4 25.1 600.95 22.4 A 19.169 19.169 0 0 1 608.115 19.938 A 24.756 24.756 0 0 1 611.6 19.7 Q 616.7 19.7 620.9 21.85 Q 625.1 24 628.15 27.8 A 27.942 27.942 0 0 1 632.692 36.043 A 31.613 31.613 0 0 1 632.85 36.5 Q 634.5 41.4 634.5 47 A 30.027 30.027 0 0 1 633.285 55.618 A 27.802 27.802 0 0 1 632.65 57.5 Q 630.8 62.4 627.5 66.15 Q 624.2 69.9 619.75 71.95 A 22.637 22.637 0 0 1 611.313 73.968 A 26.615 26.615 0 0 1 610 74 A 22.788 22.788 0 0 1 603.661 73.146 A 19.645 19.645 0 0 1 599.3 71.3 Q 594.6 68.6 591.9 63.9 Z M 124.2 42.6 L 124.2 39.8 A 13.575 13.575 0 0 0 123.867 36.7 Q 123.209 33.893 121.25 32.1 A 9.334 9.334 0 0 0 117.858 30.162 Q 116.435 29.686 114.698 29.507 A 21.513 21.513 0 0 0 112.5 29.4 Q 108.2 29.4 104.3 30.9 Q 100.4 32.4 96.1 35.3 L 91.8 26.5 A 44.067 44.067 0 0 1 99.699 22.373 A 39.19 39.19 0 0 1 102.45 21.4 Q 107.9 19.7 113.9 19.7 Q 122.427 19.7 128.085 22.946 A 19.177 19.177 0 0 1 131.35 25.3 A 18.163 18.163 0 0 1 136.927 34.992 A 27.854 27.854 0 0 1 137.6 41.3 L 137.6 58 A 9.31 9.31 0 0 0 137.653 59.031 Q 137.799 60.339 138.35 61 Q 139.1 61.9 140.8 62.1 L 140.8 73 Q 139.029 73.295 137.596 73.494 A 84.243 84.243 0 0 1 137.55 73.5 Q 136.1 73.7 135.1 73.7 A 14.223 14.223 0 0 1 132.844 73.533 Q 131.659 73.342 130.711 72.934 A 6.226 6.226 0 0 1 129.05 71.9 Q 127 70.1 126.5 67.5 L 126.2 64.8 Q 122.8 69.2 117.7 71.6 Q 112.6 74 107.3 74 A 21.594 21.594 0 0 1 101.638 73.281 A 18.497 18.497 0 0 1 97.95 71.85 Q 93.8 69.7 91.45 65.95 A 15.489 15.489 0 0 1 89.105 57.939 A 18.538 18.538 0 0 1 89.1 57.5 A 15.393 15.393 0 0 1 90.092 51.918 A 14.258 14.258 0 0 1 91.95 48.55 A 17.12 17.12 0 0 1 97.14 43.96 A 22.12 22.12 0 0 1 99.9 42.6 Q 105 40.5 111.6 40.5 Q 114.9 40.5 118.3 41 A 27.949 27.949 0 0 1 121.103 41.552 Q 122.794 41.981 124.2 42.6 Z M 554.3 42.6 L 554.3 39.8 A 13.575 13.575 0 0 0 553.967 36.7 Q 553.309 33.893 551.35 32.1 A 9.334 9.334 0 0 0 547.958 30.162 Q 546.535 29.686 544.798 29.507 A 21.513 21.513 0 0 0 542.6 29.4 Q 538.3 29.4 534.4 30.9 Q 530.5 32.4 526.2 35.3 L 521.9 26.5 A 44.067 44.067 0 0 1 529.799 22.373 A 39.19 39.19 0 0 1 532.55 21.4 Q 538 19.7 544 19.7 Q 552.527 19.7 558.185 22.946 A 19.177 19.177 0 0 1 561.45 25.3 A 18.163 18.163 0 0 1 567.027 34.992 A 27.854 27.854 0 0 1 567.7 41.3 L 567.7 58 A 9.31 9.31 0 0 0 567.753 59.031 Q 567.899 60.339 568.45 61 Q 569.2 61.9 570.9 62.1 L 570.9 73 Q 569.129 73.295 567.696 73.494 A 84.243 84.243 0 0 1 567.65 73.5 Q 566.2 73.7 565.2 73.7 A 14.223 14.223 0 0 1 562.944 73.533 Q 561.759 73.342 560.811 72.934 A 6.226 6.226 0 0 1 559.15 71.9 Q 557.1 70.1 556.6 67.5 L 556.3 64.8 Q 552.9 69.2 547.8 71.6 Q 542.7 74 537.4 74 A 21.594 21.594 0 0 1 531.738 73.281 A 18.497 18.497 0 0 1 528.05 71.85 Q 523.9 69.7 521.55 65.95 A 15.489 15.489 0 0 1 519.205 57.939 A 18.538 18.538 0 0 1 519.2 57.5 A 15.393 15.393 0 0 1 520.192 51.918 A 14.258 14.258 0 0 1 522.05 48.55 A 17.12 17.12 0 0 1 527.24 43.96 A 22.12 22.12 0 0 1 530 42.6 Q 535.1 40.5 541.7 40.5 Q 545 40.5 548.4 41 A 27.949 27.949 0 0 1 551.203 41.552 Q 552.894 41.981 554.3 42.6 Z M 726.7 51.1 L 686.2 51.1 A 16.87 16.87 0 0 0 687.121 55.23 A 14.185 14.185 0 0 0 688.55 58.1 Q 690.5 61.1 693.55 62.65 Q 696.6 64.2 700.1 64.2 Q 704.1 64.2 707.65 62.25 A 12.391 12.391 0 0 0 710.225 60.402 A 9.37 9.37 0 0 0 712.5 57.1 L 724 60.3 A 21.647 21.647 0 0 1 718.987 67.009 A 24.877 24.877 0 0 1 718.55 67.4 Q 715 70.5 710.2 72.25 A 28.95 28.95 0 0 1 703.127 73.829 A 35.563 35.563 0 0 1 699.6 74 A 31.856 31.856 0 0 1 692.892 73.32 A 26.256 26.256 0 0 1 688.2 71.85 A 26.206 26.206 0 0 1 680.903 67.3 A 24.59 24.59 0 0 1 679.5 65.95 Q 675.9 62.2 673.95 57.35 Q 672 52.5 672 47.1 A 29.076 29.076 0 0 1 673.807 36.785 A 27.377 27.377 0 0 1 675.35 33.4 Q 678.7 27.2 684.95 23.45 A 26.084 26.084 0 0 1 694.546 20.075 A 34.199 34.199 0 0 1 699.7 19.7 Q 708.3 19.7 714.4 23.45 Q 720.5 27.2 723.75 33.35 Q 727 39.5 727 46.6 Q 727 47.8 726.9 49.05 Q 726.811 50.168 726.721 50.926 A 25.388 25.388 0 0 1 726.7 51.1 Z M 311.4 33.1 L 298.3 37.1 Q 296.6 34.2 293.8 32.65 A 12.514 12.514 0 0 0 287.917 31.103 A 14.734 14.734 0 0 0 287.6 31.1 Q 283.8 31.1 280.65 33.05 A 13.283 13.283 0 0 0 276.049 37.898 A 15.982 15.982 0 0 0 275.7 38.55 A 16.394 16.394 0 0 0 274.153 43.437 A 21.524 21.524 0 0 0 273.9 46.8 A 19.471 19.471 0 0 0 274.392 51.265 A 15.723 15.723 0 0 0 275.75 54.95 A 15.341 15.341 0 0 0 278.716 58.963 A 14.013 14.013 0 0 0 280.7 60.55 Q 283.8 62.6 287.6 62.6 Q 290 62.6 292.15 61.8 Q 294.3 61 296 59.6 A 9.486 9.486 0 0 0 297.628 57.898 A 8.044 8.044 0 0 0 298.5 56.4 L 311.6 60.4 A 21.139 21.139 0 0 1 307.187 66.612 A 24.66 24.66 0 0 1 306.35 67.4 A 25.051 25.051 0 0 1 299.111 71.91 A 28.759 28.759 0 0 1 298.25 72.25 Q 293.6 74 287.8 74 A 32.754 32.754 0 0 1 281.367 73.393 A 26.275 26.275 0 0 1 276.3 71.85 Q 271.2 69.7 267.6 65.85 Q 264 62 262.05 57.1 Q 260.1 52.2 260.1 46.8 A 28.3 28.3 0 0 1 262.227 35.8 A 27.234 27.234 0 0 1 263.45 33.25 Q 266.8 27.1 273 23.4 A 25.838 25.838 0 0 1 282.128 20.137 A 34.21 34.21 0 0 1 287.7 19.7 A 32.824 32.824 0 0 1 294.678 20.408 A 24.682 24.682 0 0 1 302.3 23.4 A 24.357 24.357 0 0 1 309.082 29.39 A 22.881 22.881 0 0 1 311.4 33.1 Z M 432.6 73 L 418 73 L 398.7 20.6 L 412.6 20.6 L 425.8 60.8 L 439.1 20.6 L 451.8 20.6 L 432.6 73 Z M 13.8 73 L 0 73 L 0 2 L 30.1 2 Q 35 2 39.1 4 Q 43.2 6 46.25 9.4 Q 49.3 12.8 51 17 Q 52.7 21.2 52.7 25.6 Q 52.7 31.6 49.9 37 Q 47.1 42.4 42.2 45.8 A 19.028 19.028 0 0 1 33.346 49.049 A 24.35 24.35 0 0 1 30.6 49.2 L 13.8 49.2 L 13.8 73 Z M 228.2 59.7 L 230.9 70.3 Q 229.731 70.781 228.232 71.357 A 195.934 195.934 0 0 1 226.8 71.9 Q 224.4 72.8 221.65 73.35 Q 218.9 73.9 216.1 73.9 A 18.365 18.365 0 0 1 211.554 73.353 A 16.075 16.075 0 0 1 209.3 72.6 Q 206.2 71.3 204.35 68.45 A 10.677 10.677 0 0 1 202.992 65.278 Q 202.638 63.908 202.539 62.297 A 21.064 21.064 0 0 1 202.5 61 L 202.5 30.9 L 195.6 30.9 L 195.6 20.6 L 202.5 20.6 L 202.5 3.6 L 215.9 3.6 L 215.9 20.6 L 226.9 20.6 L 226.9 30.9 L 215.9 30.9 L 215.9 56.5 A 8.539 8.539 0 0 0 216.066 57.936 Q 216.228 58.703 216.538 59.299 A 3.655 3.655 0 0 0 217.4 60.4 A 4.938 4.938 0 0 0 220.015 61.543 A 6.622 6.622 0 0 0 220.9 61.6 Q 223 61.6 225 60.9 Q 226.789 60.274 227.938 59.808 A 30.275 30.275 0 0 0 228.2 59.7 Z M 513.1 59.7 L 515.8 70.3 Q 514.631 70.781 513.132 71.357 A 195.934 195.934 0 0 1 511.7 71.9 Q 509.3 72.8 506.55 73.35 Q 503.8 73.9 501 73.9 A 18.365 18.365 0 0 1 496.454 73.353 A 16.075 16.075 0 0 1 494.2 72.6 Q 491.1 71.3 489.25 68.45 A 10.677 10.677 0 0 1 487.892 65.278 Q 487.538 63.908 487.439 62.297 A 21.064 21.064 0 0 1 487.4 61 L 487.4 30.9 L 480.5 30.9 L 480.5 20.6 L 487.4 20.6 L 487.4 3.6 L 500.8 3.6 L 500.8 20.6 L 511.8 20.6 L 511.8 30.9 L 500.8 30.9 L 500.8 56.5 A 8.539 8.539 0 0 0 500.966 57.936 Q 501.128 58.703 501.438 59.299 A 3.655 3.655 0 0 0 502.3 60.4 A 4.938 4.938 0 0 0 504.915 61.543 A 6.622 6.622 0 0 0 505.8 61.6 Q 507.9 61.6 509.9 60.9 Q 511.689 60.274 512.838 59.808 A 30.275 30.275 0 0 0 513.1 59.7 Z M 60.9 60.9 L 60.9 0 L 74.3 0 L 74.3 56.2 A 16.9 16.9 0 0 0 74.37 57.806 Q 74.591 60.103 75.5 61.05 A 3.959 3.959 0 0 0 77.604 62.184 A 5.854 5.854 0 0 0 78.8 62.3 A 14.003 14.003 0 0 0 81.414 62.046 A 16.115 16.115 0 0 0 82.1 61.9 Q 83.8 61.5 85.1 60.9 L 86.9 71.1 A 22.478 22.478 0 0 1 83.777 72.312 A 30.522 30.522 0 0 1 80.6 73.1 A 41.867 41.867 0 0 1 77.584 73.579 Q 76.021 73.765 74.615 73.795 A 24.804 24.804 0 0 1 74.1 73.8 A 19.077 19.077 0 0 1 70.272 73.439 Q 66.668 72.701 64.35 70.45 A 10.859 10.859 0 0 1 61.448 65.388 Q 60.977 63.654 60.911 61.586 A 21.443 21.443 0 0 1 60.9 60.9 Z M 643.5 60.9 L 643.5 0 L 656.9 0 L 656.9 56.2 A 16.9 16.9 0 0 0 656.97 57.806 Q 657.191 60.103 658.1 61.05 A 3.959 3.959 0 0 0 660.204 62.184 A 5.854 5.854 0 0 0 661.4 62.3 A 14.003 14.003 0 0 0 664.014 62.046 A 16.115 16.115 0 0 0 664.7 61.9 Q 666.4 61.5 667.7 60.9 L 669.5 71.1 A 22.478 22.478 0 0 1 666.377 72.312 A 30.522 30.522 0 0 1 663.2 73.1 A 41.867 41.867 0 0 1 660.184 73.579 Q 658.621 73.765 657.215 73.795 A 24.804 24.804 0 0 1 656.7 73.8 A 19.077 19.077 0 0 1 652.872 73.439 Q 649.268 72.701 646.95 70.45 A 10.859 10.859 0 0 1 644.048 65.388 Q 643.577 63.654 643.511 61.586 A 21.443 21.443 0 0 1 643.5 60.9 Z M 251.3 73 L 237.9 73 L 237.9 20.6 L 251.3 20.6 L 251.3 73 Z M 472.3 73 L 458.9 73 L 458.9 20.6 L 472.3 20.6 L 472.3 73 Z M 593.6 41.3 L 593.6 53.8 Q 594.2 55.8 595.55 57.4 Q 596.9 59 598.7 60.15 Q 600.5 61.3 602.45 61.95 Q 604.4 62.6 606.3 62.6 A 14.222 14.222 0 0 0 610.241 62.068 A 12.641 12.641 0 0 0 612.15 61.35 Q 614.8 60.1 616.75 58 A 14.548 14.548 0 0 0 619.675 53.249 A 16.601 16.601 0 0 0 619.75 53.05 Q 620.8 50.2 620.8 47.1 A 18.468 18.468 0 0 0 619.689 40.66 A 17.469 17.469 0 0 0 619.05 39.15 A 15.753 15.753 0 0 0 616.193 34.984 A 14.397 14.397 0 0 0 614.25 33.3 Q 611.2 31.1 607.1 31.1 Q 604.2 31.1 601.55 32.45 Q 598.9 33.8 596.85 36.1 Q 594.8 38.4 593.6 41.3 Z M 13.8 14.1 L 13.8 37.1 L 29.8 37.1 Q 32.3 37.1 34.3 35.7 A 8.739 8.739 0 0 0 36.487 33.462 A 11.724 11.724 0 0 0 37.5 31.65 A 13.34 13.34 0 0 0 38.545 27.947 A 17.191 17.191 0 0 0 38.7 25.6 A 16.997 16.997 0 0 0 38.477 22.775 Q 38.197 21.115 37.566 19.742 A 10.231 10.231 0 0 0 37.35 19.3 A 11.027 11.027 0 0 0 35.909 17.148 A 8.617 8.617 0 0 0 33.85 15.4 Q 31.7 14.1 29.2 14.1 L 13.8 14.1 Z M 685.9 42.6 L 713.3 42.6 A 17.809 17.809 0 0 0 712.502 38.754 A 14.284 14.284 0 0 0 711.05 35.65 Q 709.2 32.7 706.2 31.05 A 13.434 13.434 0 0 0 700.414 29.426 A 16.034 16.034 0 0 0 699.5 29.4 A 13.562 13.562 0 0 0 694.685 30.243 A 12.739 12.739 0 0 0 692.95 31.05 Q 690 32.7 688.15 35.65 A 14.78 14.78 0 0 0 686.305 40.145 A 18.85 18.85 0 0 0 685.9 42.6 Z M 124.2 55.6 L 124.2 50.3 Q 121.8 49.3 119 48.75 A 29.736 29.736 0 0 0 115.658 48.281 A 24.398 24.398 0 0 0 113.7 48.2 A 19.784 19.784 0 0 0 110.06 48.516 Q 107.882 48.924 106.136 49.858 A 11.452 11.452 0 0 0 105.15 50.45 A 8.383 8.383 0 0 0 103.192 52.233 A 6.576 6.576 0 0 0 101.8 56.4 A 7.16 7.16 0 0 0 102.866 60.144 A 8.489 8.489 0 0 0 102.9 60.2 A 7.629 7.629 0 0 0 105.171 62.546 A 9.579 9.579 0 0 0 106.1 63.1 A 9.37 9.37 0 0 0 108.796 64.004 A 12.929 12.929 0 0 0 111.1 64.2 Q 114.1 64.2 117 63.05 A 17.911 17.911 0 0 0 119.327 61.938 Q 120.688 61.156 121.7 60.2 A 15.647 15.647 0 0 0 122.809 58.852 A 12.328 12.328 0 0 0 123.5 57.8 A 6.305 6.305 0 0 0 123.899 56.999 Q 124.082 56.546 124.154 56.126 A 3.123 3.123 0 0 0 124.2 55.6 Z M 554.3 55.6 L 554.3 50.3 Q 551.9 49.3 549.1 48.75 A 29.736 29.736 0 0 0 545.758 48.281 A 24.398 24.398 0 0 0 543.8 48.2 A 19.784 19.784 0 0 0 540.16 48.516 Q 537.982 48.924 536.236 49.858 A 11.452 11.452 0 0 0 535.25 50.45 A 8.383 8.383 0 0 0 533.292 52.233 A 6.576 6.576 0 0 0 531.9 56.4 A 7.16 7.16 0 0 0 532.966 60.144 A 8.489 8.489 0 0 0 533 60.2 A 7.629 7.629 0 0 0 535.271 62.546 A 9.579 9.579 0 0 0 536.2 63.1 A 9.37 9.37 0 0 0 538.896 64.004 A 12.929 12.929 0 0 0 541.2 64.2 Q 544.2 64.2 547.1 63.05 A 17.911 17.911 0 0 0 549.427 61.938 Q 550.788 61.156 551.8 60.2 A 15.647 15.647 0 0 0 552.909 58.852 A 12.328 12.328 0 0 0 553.6 57.8 A 6.305 6.305 0 0 0 553.999 56.999 Q 554.182 56.546 554.254 56.126 A 3.123 3.123 0 0 0 554.3 55.6 Z M 251.3 13.3 L 237.9 13.3 L 237.9 0 L 251.3 0 L 251.3 13.3 Z M 472.3 13.3 L 458.9 13.3 L 458.9 0 L 472.3 0 L 472.3 13.3 Z" vector-effect="non-scaling-stroke"/></g><!--Gen with danmarshall.github.io/google-font-to-svg-path/--></svg>